<?xml version="1.0" standalone="no"?>
<!DOCTYPE svg PUBLIC "-//W3C//DTD SVG 20010904//EN"
 "http://www.w3.org/TR/2001/REC-SVG-20010904/DTD/svg10.dtd">
<svg version="1.0" xmlns="http://www.w3.org/2000/svg"
 width="16.000000pt" height="16.000000pt" viewBox="0 0 16.000000 16.000000"
 preserveAspectRatio="xMidYMid meet">
<metadata>
Created by potrace 1.11, written by Peter Selinger 2001-2013
</metadata>
<g transform="translate(0.000000,16.000000) scale(0.004000,-0.004000)"
fill="#000000" stroke="none">
<path d="M1889 3896 c-2 -2 -34 -6 -71 -10 -119 -10 -376 -71 -453 -106 -11
-5 -44 -18 -72 -30 -347 -133 -697 -429 -909 -770 -67 -107 -170 -328 -189
-405 -51 -206 -64 -259 -73 -305 -11 -60 -10 -495 2 -545 4 -16 11 -56 17 -88
14 -78 60 -236 94 -322 25 -63 108 -231 138 -279 167 -270 407 -508 662 -658
93 -55 305 -151 400 -181 215 -69 368 -92 610 -92 292 0 482 36 749 143 143
57 370 188 473 274 199 166 342 333 460 533 89 151 185 377 168 394 -4 3 -200
6 -437 6 l-430 0 -58 -80 c-150 -208 -365 -360 -605 -430 -117 -34 -185 -43
-320 -43 -180 0 -337 35 -495 111 -47 23 -89 45 -95 49 -5 5 -38 28 -71 51
-224 153 -390 410 -444 684 -18 88 -20 287 -5 373 59 333 249 607 540 778 122
72 296 130 440 147 28 3 348 6 711 6 l662 0 183 241 c101 133 202 264 224 292
23 28 78 99 123 159 l83 107 -1004 0 c-552 0 -1006 -2 -1008 -4z"/>
<path d="M1977 2372 c-16 -3 -17 -37 -17 -398 l0 -394 971 0 c755 0 969 3 963
12 -4 7 -13 19 -20 28 -22 26 -402 508 -497 630 -49 63 -91 117 -93 119 -5 5
-1282 8 -1307 3z"/>
</g>
</svg>
